/* XPM */
static char *_df5954d54504f1a9e7f46ecb33e39aeBW3yJn1WPt0P8rpj[] = {
/* columns rows colors chars-per-pixel */
"32 32 198 2 ",
"   c #C8D45D",
".  c #010000",
"X  c #09090A",
"o  c #150D06",
"O  c #12100F",
"+  c #060614",
"@  c #18181A",
"#  c #0B1115",
"$  c #211109",
"%  c #281615",
"&  c #1E211E",
"*  c #22201F",
"=  c #222113",
"-  c #3D281E",
";  c #191823",
":  c #35132F",
">  c #330B34",
",  c #3B163B",
"<  c #2A0327",
"1  c #1D252B",
"2  c #2A2626",
"3  c #2C2D2B",
"4  c #2C2E24",
"5  c #23322C",
"6  c #2C362D",
"7  c #372835",
"8  c #333433",
"9  c #3A3636",
"0  c #3C3B3B",
"q  c #363B39",
"w  c #322E2B",
"e  c #492A1B",
"r  c #513219",
"t  c #441C3F",
"y  c #46342E",
"u  c #54362A",
"i  c #413E3E",
"p  c #473833",
"a  c #5C3A36",
"s  c #643E2C",
"d  c #3B403E",
"f  c #7C4927",
"g  c #6C4523",
"h  c #3E1444",
"j  c #3E3541",
"k  c #46154B",
"l  c #4C1C4F",
"z  c #491848",
"x  c #5B1D57",
"c  c #5A265A",
"v  c #5E335F",
"b  c #413644",
"n  c #681E69",
"m  c #6C2869",
"M  c #643466",
"N  c #3C4141",
"B  c #354140",
"V  c #434344",
"C  c #494549",
"Z  c #464A49",
"A  c #4B4C4C",
"S  c #434847",
"D  c #4C564B",
"F  c #4D4F50",
"G  c #4F5252",
"H  c #525354",
"J  c #575B5C",
"K  c #5B5C5D",
"L  c #555758",
"P  c #7F4C45",
"I  c #4E6144",
"U  c #5D605F",
"Y  c #526848",
"T  c #686B59",
"R  c #585E64",
"E  c #4C5862",
"W  c #6E586D",
"Q  c #5D6363",
"!  c #5B6966",
"~  c #5E6870",
"^  c #5A7064",
"/  c #616565",
"(  c #656B6B",
")  c #696D6D",
"_  c #626768",
"`  c #6B6E70",
"'  c #786377",
"]  c #717777",
"[  c #717F70",
"{  c #757B7D",
"}  c #797B7E",
"|  c #72766B",
" . c #804630",
".. c #8D502A",
"X. c #A45D32",
"o. c #8E623F",
"O. c #9B6A3F",
"+. c #B8713A",
"@. c #97724C",
"#. c #A77142",
"$. c #886E63",
"%. c #847864",
"&. c #817560",
"*. c #A17E61",
"=. c #6F806D",
"-. c #7A846A",
";. c #6F9E64",
":. c #748674",
">. c #75887A",
",. c #76887A",
"<. c #678372",
"1. c #8D865D",
"2. c #978773",
"3. c #B6896A",
"4. c #CF8F5F",
"5. c #D6915F",
"6. c #D5956B",
"7. c #D29067",
"8. c #CA9974",
"9. c #E49566",
"0. c #D4A176",
"q. c #F0A66E",
"w. c #FFA973",
"e. c #ECA168",
"r. c #FFCD7D",
"t. c #FFC57F",
"y. c #7D2880",
"u. c #787F80",
"i. c #892D88",
"p. c #8D6C8E",
"a. c #9B719C",
"s. c #AF47B0",
"d. c #7C8284",
"f. c #7C8B84",
"g. c #7B9695",
"h. c #808587",
"j. c #848A8C",
"k. c #838987",
"l. c #898F91",
"z. c #8C9193",
"x. c #8F9B96",
"c. c #94999B",
"v. c #919695",
"b. c #A49788",
"n. c #92A59A",
"m. c #8AA097",
"M. c #A0A99F",
"N. c #999FA2",
"B. c #9BA2A4",
"V. c #97ABA5",
"C. c #9EB5A3",
"Z. c #A2A9AC",
"A. c #ACAAAA",
"S. c #A7AFA7",
"D. c #A8B6AA",
"F. c #A7AFB1",
"G. c #AAB2B3",
"H. c #B5B9B6",
"J. c #C4A283",
"K. c #D1AD8B",
"L. c #DFBD97",
"P. c #D5B591",
"I. c #DDB386",
"U. c #E8AF81",
"Y. c #E7B487",
"T. c #F4B989",
"R. c #FABD8C",
"E. c #F3BF91",
"W. c #BBC4BF",
"Q. c #DEC29E",
"!. c #F7C596",
"~. c #F5C992",
"^. c #F8CEA3",
"/. c #FFD6A5",
"(. c #FFDBAC",
"). c #F9D5AB",
"_. c #FFDDB1",
"`. c #E5D0A8",
"'. c #EBE0B2",
"]. c #FFE7B8",
"[. c #B8BEC2",
"{. c #BEC7C9",
"}. c #BFC5C7",
"|. c #C1C7C6",
" X c #CCCECD",
".X c #C4CDCA",
"XX c #C5CFD3",
"oX c #CAD2D1",
"OX c #D7DAD9",
"+X c #D8D0C5",
"@X c #F6DAC5",
"#X c #E4DCD1",
"$X c #FFFFC9",
"%X c #E4EAEA",
"&X c #E0EAE7",
"*X c #F8F6F8",
"=X c #FEFEFE",
"-X c #F7F3F7",
/* pixels */
"                                                                ",
"                        9 9 V V 9 0 0 9 0                       ",
"                    9 i / ) j.d.i J _ ` K 8 0                   ",
"                  9 G h.B.Z.} A i F u.F.z./ H 9                 ",
"                3 J d.d.Q J A F H F A J _ h.u.H 3               ",
"                N d.R Z f.l.z.d.b k.z.z.u.Z ! d.0               ",
"              9 A V _ N.c.v.v.F 9 G x.c.N.z.H V C 9             ",
"              8 K A x.OXd.G.k.@ # ; z.G.j.XX{ H K 6             ",
"              8 J ( B.W.Q l./ &.2.%._ j.Q |.B.) J 8             ",
"              G 0 L {.l.C } L '.$X`.H u.N x.{.F j G             ",
"            8 G 0 ` Z./ @ Q b !.].L.N Q ; ( Z.( 0 A 8           ",
"            Z A 0 u.N.q e p 5 `.].Q.1 p e N N.u.q G 0           ",
"            C A 0 u.{ ] w . *.E.E.!.@.. y ] u.{ q F q           ",
"            C A 0 h.A A.V . 0.R.U.R.8.. H A.F f.0 A V           ",
"            A A 0 f.C G.Q + 8.T.Y.T.8.. ) A.A d.0 A Z           ",
"            A S * ~ J.@XQ & L.(./._.P.@ ( @XJ.! @ Z A           ",
"          3 A A 2 R 3.q.^.)._._._._._.).^.9.3.E 2 F C 3         ",
"          Z H 9 3 5 u X.4.!.(.(.(././.!.5.X.y 5 3 9 H V         ",
"          Z A 2 D :.,.q a #.+.7.8.7.+.@.P &.<.:.D 2 F V         ",
"          C d 6 D.*XOX X%Xm.$.g f s $.V.%X|.OX-XM.6 Z V         ",
"          d ^ H.=X=X X,.W.=X{.>.@.>.oX=XH.k. X=X=XA.^ 6         ",
"          p T XX=X=XU c.,.n.[ [.B.W.=.x.f.z.) =X=X|.T w         ",
"          y f -.g.&X0 ) |.,.OX*X=X*XoX:..XK C &Xg.-. .%         ",
"          e 9.I.1.| 4 v.=X=X=X=X=X=X=X=X=Xk.5 %.1.I.6.$         ",
"          r ~.T.w.e # =.D.OX*X=X=X=X=XOXC.| X u w.T.t.e         ",
"          . #.r.f . z v j ' a.p.p.' U b b v k . ..r.o..         ",
"            o r & @ m s.l i.m < i.< n m x s.z ; = r o           ",
"                  7 k c , z h t c t k l , x : 7                 ",
"                    + f 6.K.8.O . % 0.K.6.g +                   ",
"                      . b.=X+XO   @ #X=X2..                     ",
"                      X 4 ;.I X   X I ;.2 .                     ",
"                                                                "
};